<?xml version="1.0" standalone="no"?>
<!DOCTYPE svg PUBLIC "-//W3C//DTD SVG 20010904//EN"
 "http://www.w3.org/TR/2001/REC-SVG-20010904/DTD/svg10.dtd">
<svg version="1.0" xmlns="http://www.w3.org/2000/svg"
 width="1280.000000pt" height="1093.000000pt" viewBox="0 0 1280.000000 1093.000000"
 preserveAspectRatio="xMidYMid meet">
<metadata>
Created by potrace 1.15, written by Peter Selinger 2001-2017
</metadata>
<g transform="translate(0.000000,1093.000000) scale(0.100000,-0.100000)"
fill="#000000" stroke="none">
<path d="M8741 10818 c-49 -266 -54 -314 -55 -478 -1 -191 18 -284 85 -429 21
-46 39 -85 39 -86 0 -1 -25 6 -57 16 -85 28 -84 29 -97 -34 -4 -18 -2 -29 6
-31 72 -20 220 -72 224 -78 3 -4 -13 -8 -36 -8 -102 0 -227 -75 -355 -212
-117 -126 -206 -319 -294 -637 l-20 -73 62 4 c169 11 318 167 490 513 41 83
98 205 127 273 51 119 54 123 79 117 40 -10 273 -126 404 -201 l119 -68 -69
-12 c-96 -16 -160 -43 -257 -108 -167 -111 -270 -243 -416 -532 -79 -156 -80
-158 -58 -167 13 -5 54 -7 91 -4 199 13 402 206 682 648 l87 137 71 -46 c120
-77 427 -297 427 -306 0 0 -37 -1 -82 -1 -95 -1 -153 -17 -273 -77 -187 -94
-304 -210 -499 -495 l-77 -113 25 -10 c216 -82 502 109 938 624 l24 29 110
-94 c210 -180 435 -412 610 -629 74 -92 194 -255 194 -264 0 -4 8 -15 18 -26
28 -31 157 -248 232 -392 50 -97 70 -146 70 -172 0 -29 5 -39 19 -43 20 -5 80
-153 157 -383 32 -95 38 -129 38 -197 1 -73 3 -83 18 -83 10 0 18 -1 18 -2 0
-2 9 -48 19 -103 43 -218 69 -503 51 -549 -8 -22 -8 -31 1 -37 9 -5 11 -66 6
-246 -16 -615 -136 -1220 -347 -1748 -74 -187 -232 -503 -295 -590 -11 -16
-34 -52 -50 -80 -65 -116 -302 -425 -364 -478 -17 -14 -31 -30 -31 -35 0 -4
-71 -78 -157 -163 -305 -299 -608 -514 -1013 -717 -118 -60 -258 -125 -310
-146 -218 -87 -202 -85 -154 -20 65 86 94 211 94 403 0 150 -13 219 -72 381
-33 92 -131 308 -171 378 l-24 43 -39 -40 c-172 -172 -149 -507 76 -1120 34
-91 39 -115 28 -122 -34 -21 -513 -159 -554 -159 -2 0 14 24 37 53 108 135
167 393 140 612 -14 113 -58 297 -111 460 l-41 125 -31 -17 c-38 -22 -93 -86
-119 -136 -87 -169 -82 -500 15 -998 l23 -118 -51 -11 c-134 -29 -480 -80
-543 -80 l-37 0 45 28 c101 65 185 197 249 397 29 87 33 118 38 237 2 76 -1
195 -7 265 -12 129 -38 314 -46 321 -2 2 -24 -5 -48 -17 -98 -48 -185 -171
-226 -321 -47 -173 -55 -257 -56 -597 l0 -323 -45 -5 c-361 -48 -663 -214
-880 -485 -41 -53 -86 -113 -99 -134 l-24 -38 -36 53 c-245 356 -557 550 -974
603 l-87 11 -3 315 c-4 352 -17 470 -68 625 -35 104 -66 162 -120 220 -47 51
-138 103 -149 86 -21 -35 -45 -306 -45 -506 l0 -210 34 -100 c63 -188 143
-319 235 -386 25 -18 44 -34 42 -36 -11 -11 -586 83 -602 99 -2 3 5 54 16 114
48 260 62 373 67 569 6 228 -5 306 -57 412 -30 60 -117 153 -144 153 -14 0
-18 -11 -72 -195 -50 -171 -82 -327 -90 -436 -13 -200 48 -441 141 -554 l34
-42 -52 12 c-122 29 -482 138 -496 151 -2 2 14 54 37 116 99 277 152 479 173
666 14 123 1 244 -36 327 -21 49 -98 145 -115 145 -14 0 -150 -301 -196 -435
-51 -145 -65 -220 -65 -353 -1 -181 22 -294 78 -384 13 -21 23 -40 23 -42 0
-2 -39 11 -87 30 -126 50 -433 201 -433 212 0 6 16 39 36 74 118 206 255 511
305 678 30 101 33 282 6 350 -20 48 -63 110 -76 110 -11 0 -159 -211 -231
-330 -93 -155 -138 -264 -160 -397 -31 -179 -22 -323 26 -415 13 -26 14 -30 1
-25 -47 18 -358 222 -464 305 l-23 17 76 95 c156 195 281 383 354 529 77 154
95 220 95 336 0 89 -3 107 -28 160 l-28 60 -122 -125 c-197 -201 -310 -359
-362 -501 -66 -185 -82 -342 -46 -459 17 -55 18 -60 3 -48 -130 109 -228 197
-325 296 l-118 119 78 73 c477 448 648 710 604 920 -19 91 -19 91 -111 24
-244 -176 -426 -348 -491 -466 -59 -107 -107 -228 -120 -302 -11 -64 -7 -152
8 -192 13 -34 -18 -2 -111 115 -119 148 -270 371 -259 381 4 4 58 40 118 80
372 248 597 466 664 645 22 58 29 187 12 214 -19 30 -425 -206 -560 -326 -101
-88 -220 -272 -257 -392 -8 -25 -14 -72 -14 -103 0 -32 -3 -58 -7 -58 -19 0
-283 533 -271 546 2 1 59 28 128 59 380 172 659 362 743 507 35 59 62 167 51
202 l-9 26 -160 -54 c-300 -101 -442 -174 -568 -295 -116 -111 -197 -230 -213
-315 -5 -31 -9 -35 -16 -22 -22 38 -95 267 -138 428 l-28 108 56 16 c479 133
710 239 850 389 87 92 136 235 81 235 -76 0 -397 -69 -523 -112 -181 -62 -380
-214 -461 -353 l-30 -50 -17 74 c-21 91 -68 395 -68 439 0 17 4 32 10 32 5 0
93 11 196 25 583 79 814 188 879 413 l6 22 -153 0 c-184 0 -351 -14 -472 -40
-160 -35 -385 -165 -452 -261 l-29 -42 -7 49 c-4 27 -10 154 -14 282 l-7 234
39 -8 c66 -13 561 -10 651 4 249 38 391 110 457 232 15 28 26 53 24 55 -8 8
-288 46 -400 54 -172 12 -301 -1 -418 -39 -136 -46 -226 -96 -294 -164 l-59
-59 7 89 c18 232 63 511 82 507 6 -1 90 -18 186 -37 254 -51 404 -70 568 -70
123 0 157 3 220 22 89 28 168 79 204 132 l25 38 -137 46 c-268 89 -436 122
-577 113 -195 -12 -351 -65 -440 -151 -27 -25 -50 -46 -51 -46 -5 0 56 225 82
305 35 106 104 288 112 297 4 3 57 -14 117 -38 389 -157 723 -224 895 -180 67
17 139 58 179 100 l23 24 -68 38 c-94 53 -303 146 -399 179 -248 85 -513 69
-675 -40 -28 -19 -50 -31 -50 -27 0 28 241 474 287 531 l18 22 115 -66 c172
-100 443 -230 547 -264 180 -59 305 -61 411 -7 84 43 84 42 -43 136 -336 248
-495 315 -755 314 -104 0 -134 -3 -178 -21 -28 -12 -52 -19 -52 -16 0 18 352
463 366 463 3 0 42 -31 87 -68 246 -206 494 -361 645 -406 120 -35 238 -29
311 15 l34 21 -74 75 c-123 125 -269 252 -361 313 -142 93 -377 161 -507 145
l-56 -7 70 72 c39 40 130 126 204 192 l134 121 100 -109 c374 -407 599 -554
789 -515 32 7 60 17 64 22 15 24 -227 340 -349 455 -124 117 -341 224 -454
224 -24 0 -42 4 -39 9 15 23 390 292 429 307 8 3 23 -13 37 -38 38 -68 187
-286 248 -363 128 -161 233 -253 349 -308 58 -26 80 -31 145 -32 42 0 80 4 84
8 12 11 -124 274 -207 402 -39 61 -101 139 -138 175 -111 109 -263 199 -364
216 -20 4 -37 9 -37 13 0 13 455 261 479 261 4 0 41 -74 81 -166 81 -183 187
-384 250 -471 66 -94 158 -181 225 -214 64 -31 175 -51 175 -31 0 22 -71 252
-105 341 -67 177 -120 265 -222 372 -106 110 -168 154 -261 185 l-64 22 57 21
c96 36 174 61 189 61 8 0 19 7 24 15 7 14 14 13 54 -5 221 -97 577 12 986 303
61 44 112 85 112 92 0 17 -103 61 -178 76 -80 15 -207 7 -332 -21 -151 -34
-306 -115 -555 -289 -68 -48 -129 -83 -160 -91 -27 -8 -84 -26 -124 -42 -41
-15 -76 -26 -77 -25 -1 1 15 30 36 64 40 67 82 187 101 293 17 92 14 285 -6
420 -20 136 -62 350 -70 358 -10 10 -58 -22 -108 -73 -89 -90 -151 -251 -166
-429 -15 -183 10 -376 75 -574 19 -58 33 -106 32 -107 -2 -1 -75 -39 -163 -83
-88 -45 -212 -112 -275 -151 -63 -38 -116 -68 -117 -67 -2 2 11 29 29 61 69
127 96 350 64 531 -27 160 -173 594 -199 594 -19 0 -87 -81 -116 -138 -45 -89
-63 -181 -63 -312 0 -205 53 -406 167 -639 37 -73 65 -134 63 -135 -2 -1 -55
-38 -118 -81 -115 -78 -241 -171 -354 -262 -39 -31 -57 -41 -51 -28 104 240
82 504 -66 815 -58 122 -186 357 -199 365 -4 3 -21 -10 -36 -27 -110 -132
-126 -393 -39 -656 51 -153 164 -353 271 -478 l44 -52 -68 -58 c-37 -32 -141
-131 -231 -219 -113 -110 -162 -152 -157 -135 37 139 -3 381 -94 560 -57 112
-187 292 -368 510 l-21 25 -32 -70 c-29 -61 -34 -83 -37 -167 -11 -262 127
-544 405 -829 l103 -106 -26 -24 c-34 -31 -203 -241 -279 -346 l-60 -83 -12
87 c-40 276 -168 473 -508 786 l-129 119 -20 -44 c-30 -65 -29 -228 3 -328 74
-239 269 -481 523 -653 43 -29 77 -55 78 -58 0 -3 -35 -64 -77 -135 -43 -71
-103 -180 -133 -242 -30 -61 -58 -112 -61 -112 -4 0 -9 18 -13 39 -10 62 -99
228 -170 318 -69 86 -163 172 -292 265 -92 66 -313 208 -324 208 -10 0 -20
-63 -20 -125 0 -262 276 -583 675 -786 47 -23 85 -48 85 -54 0 -6 -18 -57 -40
-113 -38 -98 -96 -278 -121 -372 l-11 -45 -24 54 c-80 180 -265 355 -524 493
-97 52 -354 168 -371 168 -9 0 -10 -24 -7 -85 5 -74 11 -95 51 -177 115 -235
378 -431 727 -545 63 -20 116 -37 116 -37 1 -1 -7 -48 -17 -106 -25 -134 -49
-331 -49 -391 0 -81 -8 -86 -47 -27 -118 181 -336 325 -628 417 -161 50 -375
104 -383 96 -12 -11 18 -121 50 -185 38 -76 143 -186 234 -248 182 -122 441
-212 690 -239 l69 -8 2 -95 c3 -117 21 -437 29 -505 l6 -50 -27 40 c-42 60
-123 142 -191 191 -89 64 -254 139 -369 168 -100 25 -319 60 -450 71 -38 3
-85 8 -104 11 -34 5 -34 5 -27 -28 27 -138 187 -301 380 -388 181 -81 354
-114 607 -114 l185 -1 23 -161 c12 -89 35 -226 52 -305 16 -79 29 -147 29
-152 0 -4 -24 17 -54 46 -90 91 -220 158 -401 208 -68 18 -113 22 -295 26
-199 4 -464 -8 -478 -22 -14 -14 55 -119 112 -171 142 -129 390 -204 673 -204
108 0 293 21 395 45 34 8 63 13 64 12 1 -1 14 -49 28 -107 15 -58 55 -189 90
-292 l63 -187 -44 31 c-70 47 -179 94 -283 119 -120 29 -349 32 -505 6 -135
-23 -390 -78 -405 -87 -18 -11 19 -69 78 -121 227 -199 699 -216 1139 -41 l51
21 37 -87 c20 -48 77 -165 126 -260 49 -95 89 -175 89 -177 0 -2 -18 5 -40 16
-83 40 -167 53 -340 53 -146 0 -176 -3 -265 -27 -126 -33 -235 -71 -400 -137
-187 -75 -175 -64 -124 -116 113 -116 334 -166 576 -130 193 29 418 108 588
207 63 37 70 38 79 22 40 -72 223 -326 313 -434 12 -14 7 -14 -54 -1 -140 29
-405 -1 -554 -63 -150 -63 -527 -268 -545 -296 -7 -12 29 -43 87 -74 186 -97
504 -68 784 72 118 60 272 161 342 227 l32 29 61 -66 c61 -66 249 -243 324
-304 l39 -31 -94 -1 c-283 -1 -519 -117 -901 -445 -112 -96 -116 -101 -96
-114 116 -82 342 -80 548 4 184 74 337 181 514 356 66 65 125 117 130 114 6
-3 67 -45 135 -94 69 -49 176 -120 239 -158 l115 -69 -79 -8 c-143 -14 -349
-99 -484 -200 -83 -62 -229 -206 -367 -362 l-123 -140 42 -20 c36 -16 63 -20
158 -19 101 0 126 4 202 31 158 55 312 157 455 301 81 81 213 249 255 324 12
21 25 38 28 38 4 0 81 -36 171 -79 90 -43 211 -98 269 -121 120 -49 138 -60
93 -60 -51 0 -182 -46 -256 -90 -216 -126 -357 -283 -572 -638 -48 -79 -84
-147 -80 -150 4 -4 55 -7 113 -6 92 0 117 4 177 28 117 45 212 111 331 230
132 133 234 280 325 471 34 72 63 132 65 134 1 1 65 -17 141 -42 119 -40 328
-99 428 -122 l30 -7 -41 -12 c-209 -64 -428 -274 -578 -557 -52 -97 -196 -427
-196 -448 0 -20 128 -9 202 17 138 49 308 192 418 353 103 150 201 376 245
563 8 32 16 60 18 63 3 2 63 -7 133 -21 71 -14 197 -35 279 -46 83 -12 151
-23 153 -25 2 -1 -21 -17 -50 -35 -115 -71 -283 -283 -348 -439 -57 -140 -145
-446 -175 -613 -7 -36 -6 -38 18 -38 52 0 155 41 223 89 228 159 393 507 444
931 6 52 12 95 13 96 7 5 168 -21 253 -41 129 -31 255 -85 369 -159 113 -73
288 -248 369 -369 l59 -88 -51 -107 c-68 -145 -93 -206 -140 -348 -55 -165
-55 -164 -10 -180 21 -7 39 -10 42 -6 2 4 18 53 35 110 36 116 104 289 148
376 l29 58 52 -111 c29 -61 75 -179 103 -263 27 -84 52 -158 54 -165 3 -9 12
-10 37 -1 18 6 37 14 41 18 17 15 -113 371 -194 533 -48 95 -52 80 62 233 131
175 315 325 496 403 96 42 256 86 351 97 l59 6 6 -76 c15 -177 87 -437 162
-587 129 -257 302 -411 498 -444 29 -5 37 -3 37 9 0 9 -24 112 -54 228 -53
210 -105 366 -154 463 -71 141 -214 311 -321 382 l-55 37 139 18 c77 10 202
29 277 43 76 14 142 25 146 25 5 0 15 -26 22 -57 18 -85 82 -258 131 -360 67
-136 154 -259 254 -358 139 -137 265 -203 408 -213 l79 -5 -7 24 c-14 47 -128
306 -176 399 -78 153 -159 269 -251 361 -94 94 -209 177 -285 204 -65 25 -71
32 -31 40 69 14 327 86 428 119 57 19 105 34 106 33 0 -1 26 -54 56 -117 150
-310 367 -554 596 -669 116 -59 334 -80 349 -35 5 16 -191 325 -281 442 -159
207 -367 362 -544 404 -29 7 -52 15 -52 18 0 3 44 22 98 44 53 21 170 74 259
116 l162 78 44 -67 c119 -179 277 -341 435 -444 169 -111 300 -157 448 -157
75 0 177 21 188 38 12 20 -318 371 -445 475 -120 97 -300 183 -452 216 l-78
17 123 76 c68 42 169 109 225 150 l103 74 96 -93 c227 -223 479 -367 709 -404
131 -21 280 1 354 53 20 14 18 18 -90 109 -250 213 -422 326 -580 383 -103 37
-235 66 -303 66 l-41 0 75 67 c41 37 127 118 191 181 l117 114 58 -45 c251
-190 534 -297 783 -297 115 0 204 20 282 61 54 29 97 65 88 73 -2 2 -58 35
-125 74 -162 95 -360 193 -465 230 -115 41 -278 65 -396 60 -51 -2 -93 -3 -93
-1 0 2 42 58 93 126 50 67 116 159 145 203 l52 81 95 -48 c111 -55 233 -101
365 -135 73 -20 130 -27 246 -31 172 -6 256 7 361 57 56 26 153 102 153 120 0
28 -480 198 -642 226 -110 19 -331 14 -418 -9 -30 -9 -56 -15 -57 -13 -1 1 32
69 74 151 42 82 89 181 105 220 16 38 33 74 37 78 5 5 51 -5 102 -21 194 -62
287 -77 484 -77 156 0 191 3 265 23 114 31 216 81 278 137 49 44 99 111 90
121 -9 9 -287 66 -413 85 -270 40 -527 13 -697 -73 -21 -10 -38 -15 -38 -11 0
5 16 54 35 111 30 91 77 251 103 352 5 19 14 34 19 33 462 -94 924 -4 1100
215 32 39 77 121 71 128 -12 11 -367 26 -508 21 -131 -5 -185 -11 -260 -31
-123 -32 -244 -83 -320 -135 -55 -38 -60 -39 -55 -19 19 82 36 184 55 328 13
91 24 171 26 178 2 9 39 12 141 12 262 0 482 55 677 169 140 81 261 225 281
332 6 34 5 36 -17 33 -12 -2 -75 -8 -138 -14 -160 -15 -386 -56 -483 -87 -142
-44 -301 -134 -396 -223 -24 -23 -44 -40 -46 -38 -2 2 1 53 5 113 5 61 9 179
9 263 1 113 4 154 14 156 6 2 62 13 122 24 443 83 792 333 834 599 5 32 8 59
6 61 -6 7 -313 -78 -430 -118 -215 -74 -350 -154 -482 -285 l-72 -72 -5 41
c-18 143 -40 290 -52 349 -22 106 -25 100 77 137 214 76 407 197 538 336 128
136 190 266 191 397 0 37 -3 67 -7 67 -14 0 -258 -115 -366 -172 -60 -32 -141
-79 -181 -105 -90 -60 -219 -188 -278 -276 l-46 -69 -42 129 c-24 70 -62 174
-86 231 l-42 102 47 26 c246 139 427 288 529 436 105 153 153 327 122 440
l-11 37 -87 -54 c-174 -108 -339 -232 -433 -325 -103 -102 -158 -176 -217
-295 l-38 -75 -38 72 c-52 97 -164 285 -193 324 l-23 31 77 59 c228 171 397
387 473 604 32 92 39 247 15 324 -10 31 -21 59 -25 61 -13 8 -277 -243 -373
-355 -51 -59 -112 -142 -136 -185 -54 -94 -110 -240 -118 -306 -3 -27 -9 -49
-12 -49 -3 0 -19 19 -36 43 -26 36 -157 195 -263 318 l-34 39 82 88 c126 134
205 245 275 387 77 156 105 261 105 390 0 99 -16 167 -53 228 l-23 38 -105
-131 c-227 -287 -308 -429 -358 -632 -13 -54 -21 -119 -21 -172 0 -47 -2 -86
-5 -86 -3 0 -49 42 -102 94 -87 83 -187 172 -278 249 -28 24 -29 25 -12 48
217 297 317 552 317 803 0 144 -30 243 -98 329 l-31 38 -27 -43 c-54 -84 -220
-424 -247 -506 -57 -171 -71 -403 -34 -524 11 -33 11 -46 3 -40 -6 4 -54 39
-106 78 -52 39 -151 108 -220 153 -69 46 -129 87 -133 91 -5 4 10 45 34 91
105 210 157 397 166 594 9 216 -34 368 -134 469 l-48 49 -21 -49 c-38 -86
-114 -315 -145 -434 -60 -226 -50 -444 27 -634 6 -15 -6 -12 -57 18 -35 21
-151 81 -257 133 -154 76 -192 99 -187 112 22 57 68 241 80 323 51 338 -32
656 -204 782 -27 20 -53 36 -59 36 -5 0 -19 -51 -31 -112z"/>
<path d="M7555 10246 c-73 -18 -145 -53 -145 -69 0 -29 256 -203 427 -290 304
-155 562 -183 721 -80 23 15 41 32 39 38 -6 16 -291 211 -400 272 -54 31 -135
68 -180 84 -158 54 -350 73 -462 45z"/>
<path d="M10195 8541 c-127 -34 -232 -81 -322 -144 -89 -63 -406 -363 -398
-377 9 -15 75 -41 129 -51 170 -31 430 92 767 363 198 159 195 156 183 175
-31 50 -226 68 -359 34z"/>
<path d="M10535 8035 c-206 -39 -332 -103 -598 -303 l-128 -96 23 -19 c60 -49
108 -62 223 -62 100 0 120 3 225 38 63 20 189 75 280 120 186 94 410 223 410
237 0 14 -68 57 -120 75 -64 23 -218 28 -315 10z"/>
<path d="M10733 7490 c-82 -9 -226 -54 -355 -111 -89 -39 -275 -135 -292 -150
-16 -14 44 -68 114 -102 64 -32 65 -32 220 -32 142 0 165 3 283 33 164 42 542
177 571 203 15 13 -51 76 -109 104 -27 13 -75 31 -106 39 -73 18 -234 27 -326
16z"/>
<path d="M10850 6913 c-154 -24 -550 -139 -565 -163 -10 -17 85 -109 139 -135
156 -76 398 -71 841 16 187 37 225 47 225 60 0 46 -135 148 -238 179 -126 39
-306 59 -402 43z"/>
<path d="M10700 6329 c-151 -20 -278 -41 -289 -49 -31 -19 78 -153 159 -195
179 -93 518 -124 948 -88 85 7 89 14 40 87 -60 91 -165 158 -343 217 -96 32
-106 33 -275 35 -96 1 -204 -2 -240 -7z"/>
<path d="M10483 5773 c-41 -4 -41 -4 -33 -34 26 -88 109 -178 215 -231 161
-82 456 -146 847 -184 56 -6 69 -4 74 9 8 22 -40 117 -87 170 -83 95 -284 204
-436 237 -142 31 -426 47 -580 33z"/>
<path d="M10414 5244 c23 -170 210 -326 536 -447 179 -66 502 -158 519 -148
16 10 -6 97 -41 164 -42 79 -151 188 -260 259 -137 91 -301 145 -582 193 -81
14 -155 25 -163 25 -13 0 -15 -8 -9 -46z"/>
<path d="M10292 4726 c8 -91 43 -160 128 -249 98 -104 259 -211 490 -327 91
-46 339 -160 348 -160 3 0 2 31 -1 68 -11 133 -68 235 -207 373 -96 95 -175
147 -331 216 -104 46 -387 143 -416 143 -13 0 -15 -10 -11 -64z"/>
<path d="M10106 4328 c-38 -185 61 -368 311 -578 170 -142 492 -363 511 -351
6 4 14 31 18 61 16 144 -90 366 -252 526 -80 79 -251 193 -436 289 -143 74
-147 76 -152 53z"/>
<path d="M9831 3878 c-35 -100 -20 -205 49 -337 51 -96 115 -181 243 -322 118
-130 375 -371 390 -366 39 13 49 205 17 308 -33 102 -118 262 -176 333 -30 36
-100 105 -155 153 -100 87 -333 263 -349 263 -4 0 -13 -14 -19 -32z"/>
<path d="M9502 3493 c-38 -82 -38 -213 1 -326 50 -146 144 -312 282 -502 122
-168 216 -280 233 -280 26 0 63 106 69 195 6 87 -13 194 -58 327 -34 102 -87
193 -181 312 -81 102 -295 331 -309 331 -6 0 -22 -26 -37 -57z"/>
<path d="M9117 3183 c-89 -129 -81 -319 25 -589 69 -178 291 -604 314 -604 18
0 62 71 85 136 30 84 35 188 15 323 -21 137 -33 177 -96 306 -70 143 -285 465
-310 465 -4 0 -19 -17 -33 -37z"/>
</g>
</svg>
